<svg width="800" height="630" viewBox="0 0 800 630" fill="none" xmlns="http://www.w3.org/2000/svg">
<path d="M159.675 618.727C159.675 618.727 113.389 621.937 114.193 563.715C114.193 563.715 116.041 515.115 132.776 471.312C132.776 471.312 142.367 449.42 124.385 410.959C124.385 410.959 57.8543 298.26 82.1197 248.59C82.1197 248.59 198.115 26.9386 367.169 17.8607C367.169 17.8607 559.601 -7.77695 667.483 37.0866C667.483 37.0866 743.014 56.3126 692.663 163.67C692.663 163.67 619.553 271.027 665.681 335.919C665.681 335.919 775.383 477.789 629.717 618.764L159.675 618.727Z" fill="#190435"/>
<path opacity="0.7" d="M159.675 618.727C159.675 618.727 113.389 621.937 114.193 563.715C114.193 563.715 116.041 515.115 132.776 471.312C132.776 471.312 142.367 449.42 124.385 410.959C124.385 410.959 57.8543 298.26 82.1197 248.59C82.1197 248.59 198.115 26.9386 367.169 17.8607C367.169 17.8607 559.601 -7.77695 667.483 37.0866C667.483 37.0866 743.014 56.3126 692.663 163.67C692.663 163.67 619.553 271.027 665.681 335.919C665.681 335.919 775.383 477.789 629.717 618.764L159.675 618.727Z" fill="white"/>
<path d="M354.417 127.653H89.9463V291.424H354.417V127.653Z" fill="white"/>
<path d="M342.432 338.604H160.691V606.097H342.432V338.604Z" fill="white"/>
<path d="M343.107 606.78H160.017V337.93H343.107V606.78ZM161.366 605.423H341.748V339.286H161.366V605.423Z" fill="#2F2E41"/>
<path d="M477.01 505.742C476.649 526.527 471.077 578.116 471.077 578.116L450.998 578.485C450.998 578.485 450.61 573.577 449.898 565.864C447.662 541.518 442.238 489.127 435.761 474.191C435.761 474.191 431.658 462.317 429.44 438.562L427.195 406.651L425.347 458.24C425.347 458.24 420.089 521.96 410.941 540.245C410.695 540.732 410.327 541.147 409.871 541.448C409.416 541.749 408.889 541.926 408.344 541.961C405.341 542.182 399.104 541.961 394.484 537.653C394.484 537.653 394.484 534.064 394.484 528.243C394.484 505.179 394.354 446.782 393.754 436.707C393.754 436.707 384.467 365.459 388.912 334.304L391.896 333.197L471.087 340.744L472.63 340.891C472.63 340.891 477.01 345.799 476.271 409.271C476.271 409.271 476.271 455.656 477.379 466.423C478.488 477.189 477.379 484.957 477.01 505.742Z" fill="#2F2E41"/>
<path opacity="0.2" d="M477.01 505.742C476.649 526.527 471.078 578.116 471.078 578.116L450.998 578.485C450.998 578.485 450.61 573.577 449.898 565.865C460.756 565.717 464.757 559.554 464.757 559.554C470.301 548.788 469.22 490.16 469.22 490.16C462.9 479.025 468.832 475.685 468.832 475.685C474.376 470.15 469.95 462.318 469.95 462.318C462.151 453.784 468.832 437.455 468.832 437.455C478.876 408.136 469.581 342.432 469.581 342.432L471.087 340.707L472.63 340.855C472.63 340.855 477.01 345.763 476.271 409.234C476.271 409.234 476.271 455.62 477.379 466.386C478.488 477.152 477.379 484.957 477.01 505.742Z" fill="black"/>
<path d="M532.591 240.785C525.938 237.603 505.415 258.314 505.415 258.314L481.963 222.666C476.89 216.015 457.171 214.142 457.171 214.142L424.663 213.616C420.662 213.681 401.959 217.722 401.959 217.722C386.25 220.923 380.383 260.297 380.383 260.297L372.916 302.864C368.379 326.278 383.081 325.475 383.081 325.475L387.461 329.664L388.939 331.075C397.468 349.702 432.656 352.091 432.656 352.091C455.572 356.611 472.63 340.919 472.63 340.919C469.959 334.793 472.094 327.616 472.094 327.616C475.559 316.434 478.488 291.157 478.488 291.157C504.87 312.984 520.865 289.025 520.865 289.025L545.925 249.651C536.065 250.407 532.591 240.785 532.591 240.785ZM396.757 270.39H393.393C393.393 270.39 394.142 265.344 396.757 263.102V270.39Z" fill="#190435"/>
<path opacity="0.2" d="M427.195 406.651L425.346 458.24C425.346 458.24 420.089 521.96 410.941 540.245C410.695 540.732 410.326 541.147 409.871 541.448C409.416 541.749 408.889 541.926 408.344 541.961C405.341 542.183 399.104 541.961 394.483 537.653C394.483 537.653 394.483 534.064 394.483 528.243C398.503 524.959 409.12 513.565 411.218 484.21C410.731 482.045 410.712 479.801 411.161 477.628C411.611 475.456 412.518 473.403 413.824 471.608C413.824 471.608 417.908 468.628 413.824 463.065C413.824 463.065 407.614 461.865 414.748 451.994C414.748 451.994 424.432 396.291 425.984 374.232C425.984 374.232 428.377 396.115 427.195 406.651Z" fill="black"/>
<path d="M450.998 578.485C450.998 578.485 450.36 586.511 447.801 590.644C447.801 590.644 425.919 613.864 436.167 614.455C436.167 614.455 444.641 619.381 460.617 603.44L468.647 595.257C469.946 593.935 470.696 592.172 470.745 590.321L471.077 578.116L450.998 578.485Z" fill="#190435"/>
<path d="M394.502 537.653C394.502 537.653 385.927 546.454 378.96 546.039C378.96 546.039 347.265 549.831 353.604 556.584C353.604 556.584 378.22 565.163 404.722 553.069C405.679 552.629 406.496 551.936 407.085 551.064C407.673 550.191 408.01 549.174 408.058 548.124L408.335 541.961C408.335 541.961 400.323 542.773 394.502 537.653Z" fill="#190435"/>
<path d="M532.591 240.785C532.591 240.785 530.512 225.942 537.211 220.056L551.913 207.943C552.203 207.706 552.565 207.572 552.94 207.564C553.315 207.556 553.682 207.673 553.983 207.897V207.897C554.329 208.161 554.559 208.549 554.625 208.979C554.69 209.409 554.586 209.848 554.334 210.203L546.84 220.646C546.84 220.646 551.155 221.034 551.552 224.954C551.552 224.954 554.103 224.17 556.071 227.722C556.071 227.722 560.396 227.132 561.181 232.233L561.273 234.208C561.353 234.978 561.2 235.755 560.832 236.438C560.464 237.12 559.9 237.676 559.211 238.034C558.523 238.392 557.743 238.536 556.972 238.445C556.201 238.355 555.475 238.036 554.888 237.529C554.888 237.529 555.664 247.133 545.944 249.587C545.925 249.605 536.638 250.933 532.591 240.785Z" fill="#F9B499"/>
<path d="M536.407 227.74C537.442 226.412 538.514 225.111 539.577 223.801C540.639 222.491 541.72 221.209 542.792 219.908L544.428 217.952C544.552 217.825 544.711 217.736 544.885 217.697C545.059 217.658 545.24 217.67 545.407 217.731C545.577 217.792 545.726 217.901 545.834 218.046C545.943 218.19 546.006 218.363 546.017 218.543C546.056 218.975 546.071 219.409 546.063 219.843C546.026 221.562 545.762 223.268 545.278 224.917V224.917C545.165 225.653 545.131 226.398 545.176 227.141C545.213 227.856 545.385 228.557 545.685 229.207C545.825 229.503 546.03 229.763 546.284 229.969C546.538 230.175 546.835 230.321 547.154 230.397C547.85 230.535 548.569 230.506 549.251 230.314L549.843 230.204L549.778 230.766C549.709 231.406 549.727 232.051 549.834 232.685C549.901 233.287 550.146 233.855 550.536 234.318C550.736 234.524 550.981 234.68 551.252 234.775C551.523 234.869 551.813 234.899 552.097 234.863C552.409 234.833 552.718 234.78 553.022 234.706L553.946 234.364L554.583 234.134L554.371 234.752C554.26 235.096 554.223 235.46 554.263 235.819C554.303 236.178 554.418 236.525 554.602 236.837C555.006 237.48 555.63 237.955 556.357 238.175C557.095 238.438 557.902 238.438 558.64 238.175C559.392 237.887 560.07 237.437 560.626 236.855C560.121 237.503 559.469 238.022 558.723 238.368C557.941 238.707 557.066 238.766 556.246 238.534C555.84 238.414 555.449 238.247 555.082 238.036C554.709 237.801 554.394 237.486 554.158 237.114C553.916 236.736 553.757 236.311 553.694 235.867C553.63 235.423 553.662 234.97 553.788 234.54L554.204 234.936L553.225 235.342C552.874 235.447 552.516 235.525 552.153 235.573C551.76 235.635 551.357 235.605 550.979 235.483C550.6 235.361 550.255 235.152 549.972 234.872C549.464 234.301 549.142 233.59 549.048 232.833C548.923 232.12 548.895 231.394 548.965 230.674L549.492 231.135C548.67 231.38 547.801 231.421 546.96 231.255C546.519 231.152 546.107 230.954 545.751 230.675C545.395 230.396 545.105 230.043 544.899 229.641C544.521 228.883 544.313 228.052 544.289 227.205C544.251 226.391 544.301 225.574 544.437 224.77V224.724C544.926 223.15 545.203 221.518 545.26 219.871C545.283 219.466 545.283 219.059 545.26 218.653C545.258 218.621 545.248 218.589 545.23 218.562C545.212 218.535 545.186 218.514 545.156 218.5C545.127 218.487 545.094 218.482 545.061 218.486C545.029 218.49 544.998 218.504 544.973 218.524L543.291 220.369C542.155 221.615 541.037 222.879 539.882 224.106C538.727 225.333 537.581 226.532 536.407 227.74Z" fill="#F7A48B"/>
<path d="M551.534 224.991C551.549 225.936 551.386 226.875 551.053 227.759C550.762 228.649 550.305 229.475 549.704 230.194C549.689 229.25 549.852 228.311 550.185 227.427C550.483 226.54 550.941 225.715 551.534 224.991V224.991Z" fill="#F7A48B"/>
<path d="M556.052 227.741C556.044 228.947 555.864 230.146 555.516 231.302C555.202 232.466 554.72 233.579 554.084 234.604C554.143 232.186 554.821 229.824 556.052 227.741V227.741Z" fill="#F7A48B"/>
<path opacity="0.2" d="M433.654 229.254C431.168 229.595 429.958 223.063 429.958 223.063C427.472 223.285 422.51 227.003 422.51 227.003C422.51 227.003 422.963 263.951 427.472 262.936C427.472 262.936 429.958 264.062 434.92 251.782L446.997 229.484C446.997 229.484 440.593 226.717 437.359 226.089C436.782 227.16 435.993 228.101 435.04 228.857C434.776 229.011 434.489 229.12 434.19 229.18C434.014 229.223 433.834 229.247 433.654 229.254V229.254Z" fill="white"/>
<path d="M451.201 209.161L437.821 225.407C437.121 226.728 436.181 227.907 435.049 228.885C434.664 229.203 434.175 229.369 433.676 229.35C433.176 229.331 432.701 229.13 432.342 228.783C428.849 225.287 428.766 210.683 428.849 205.637C429.74 205.787 430.643 205.865 431.547 205.867C438.265 205.867 444.243 201.78 448.18 195.359C448.238 200.117 449.266 204.813 451.201 209.161V209.161Z" fill="#F9B499"/>
<path d="M428.812 205.637C428.812 205.637 428.442 212.74 429.126 215.628C429.126 215.628 436.851 213.838 440.713 202.823C440.713 202.823 436.5 206.947 428.812 205.637Z" fill="#F7A48B"/>
<path d="M437.331 226.089C437.331 226.089 450.878 229.826 453.622 233.627L456.524 213.22C456.524 213.22 457.171 209.53 451.201 209.161L437.331 226.089Z" fill="#190435"/>
<path d="M416.845 232.971C416.845 232.971 423.84 224.069 429.93 223.063C429.93 223.063 428.35 213.367 428.802 210.221C428.802 210.221 419.664 213.598 416.845 232.971Z" fill="#190435"/>
<path opacity="0.2" d="M437.331 226.089C437.331 226.089 450.878 229.826 453.622 233.627L456.524 213.22C456.524 213.22 457.171 209.53 451.201 209.161L437.331 226.089Z" fill="black"/>
<path opacity="0.2" d="M416.845 232.971C416.845 232.971 423.84 224.069 429.93 223.063C429.93 223.063 428.35 213.367 428.802 210.221C428.802 210.221 419.664 213.598 416.845 232.971Z" fill="black"/>
<path d="M453.077 177.13C453.139 183.541 451.439 189.846 448.161 195.359C444.197 201.817 438.218 205.867 431.528 205.867C430.624 205.864 429.722 205.787 428.83 205.636C418.194 203.884 409.97 191.798 409.97 177.037C409.97 161.142 419.627 148.245 431.528 148.245C443.43 148.245 453.077 161.188 453.077 177.13Z" fill="#F9B499"/>
<path d="M462.271 181.825C461.411 183.119 460.369 184.281 459.176 185.276L451.682 180.128C451.682 180.128 449.104 168.891 435.049 167.729C435.133 168.795 435.611 169.792 436.39 170.526C437.168 171.261 438.192 171.681 439.263 171.705C439.263 171.705 434.19 173.32 428.766 167.71C427.522 166.348 425.879 165.412 424.071 165.035C422.223 164.675 420.033 164.906 418.869 167.249C418.869 167.249 415.33 172.48 410.238 171.677C410.238 171.677 409.887 175.746 409.961 177.084H409.906C409.277 176.668 403.964 172.867 404.703 166.557C405.064 163.66 406.69 160.21 410.664 156.317C410.664 156.317 408.547 144.619 423.314 139.711C423.314 139.711 446.295 132.451 447.699 143.217C447.699 143.217 465.256 142.506 466.688 158.42C466.642 158.356 468.49 172.766 462.271 181.825Z" fill="#2F2E41"/>
<path d="M410.1 171.428L410.017 174.768C410.017 174.768 414.702 175.524 422.491 169.758C422.491 169.758 433.58 175.441 441.674 173.264C441.674 173.264 447.117 173.596 450.638 181.124L451.672 180.128C451.672 180.128 449.492 169.122 435.04 167.72C435.04 167.72 435.04 171.225 439.263 171.705C439.263 171.705 434.171 173.264 428.728 167.655C427.493 166.327 425.881 165.406 424.108 165.017C422.205 164.638 419.996 164.841 418.869 167.258C418.86 167.258 414.96 172.849 410.1 171.428Z" fill="#F7A48B"/>
<path opacity="0.2" d="M462.271 181.826C461.412 183.119 460.369 184.281 459.176 185.276L451.682 180.128C451.682 180.128 449.104 168.891 435.049 167.729C435.133 168.795 435.611 169.792 436.39 170.527C437.168 171.261 438.192 171.681 439.263 171.705C439.263 171.705 434.19 173.32 428.766 167.711C427.522 166.348 425.879 165.412 424.071 165.035C422.223 164.675 420.033 164.906 418.869 167.249C418.869 167.249 415.33 172.48 410.238 171.678C410.238 171.678 409.887 175.746 409.961 177.084H409.906C409.268 176.696 403.946 173.135 404.639 166.567H404.731C405.323 166.391 409.656 164.823 412.641 157.415C412.641 157.415 419.747 141.243 439.863 146.64C439.863 146.64 437.655 142.949 435.927 142.101C435.927 142.101 443.412 142.221 446.6 148.558C446.6 148.558 456.533 149.536 460.95 155.939C460.95 155.939 453.465 153.974 455.406 158.144C455.396 158.07 463.491 164.832 462.271 181.826Z" fill="black"/>
<path d="M458.867 188.415C460.121 184.611 458.746 180.74 455.794 179.77C452.842 178.799 449.431 181.096 448.177 184.899C446.922 188.703 448.298 192.574 451.25 193.544C454.201 194.515 457.612 192.218 458.867 188.415Z" fill="#F9B499"/>
<path opacity="0.2" d="M472.63 340.873C472.63 340.873 455.572 356.556 432.656 352.045C432.656 352.045 397.468 349.655 388.939 331.029L387.461 329.618L398.817 332.893C416.928 352.045 455.84 342.469 455.84 342.469C465.699 339.812 461.976 334.221 461.976 334.221C457.697 327.57 466.235 315.586 466.235 315.586C473.166 301.222 471.835 278.61 471.835 278.61L478.488 291.11C478.488 291.11 475.559 316.388 472.094 327.57C472.094 327.57 469.959 334.747 472.63 340.873Z" fill="black"/>
<path opacity="0.2" d="M477.62 219.318C477.62 219.318 479.717 230.997 486.703 234.66C486.703 234.66 489.142 235.352 486.176 242.151C486.176 242.151 482.859 247.557 491.064 252.613C491.064 252.613 498.05 255.749 494.761 260.805L490.205 265.353C490.172 265.388 490.15 265.432 490.143 265.48C490.136 265.528 490.145 265.577 490.167 265.62C490.19 265.663 490.225 265.697 490.268 265.719C490.312 265.741 490.361 265.748 490.408 265.741L498.605 264.292C498.605 264.292 495.565 270.935 496.988 275.806C496.988 275.928 497.036 276.045 497.123 276.132C497.21 276.218 497.327 276.267 497.45 276.267C497.572 276.267 497.69 276.218 497.776 276.132C497.863 276.045 497.912 275.928 497.912 275.806C498.762 272.208 501.312 262.752 505.489 258.406L482.037 222.759C480.746 221.397 479.257 220.237 477.62 219.318V219.318Z" fill="black"/>
<path d="M366.679 272.752L386.444 334.913L430.299 330.605L410.303 271.617L366.679 272.752Z" fill="#190435"/>
<path opacity="0.4" d="M366.679 272.752L386.444 334.913L430.299 330.605L410.303 271.617L366.679 272.752Z" fill="white"/>
<path d="M413.26 269.117L433.025 328.557L430.299 330.605L410.303 271.617L366.679 272.752L371.447 270.252L413.26 269.117Z" fill="#190435"/>
<path opacity="0.5" d="M413.26 269.117L433.025 328.557L430.299 330.605L410.303 271.617L366.679 272.752L371.447 270.252L413.26 269.117Z" fill="white"/>
<path opacity="0.4" d="M394.696 306.96C399.008 306.96 402.504 303.527 402.504 299.293C402.504 295.059 399.008 291.627 394.696 291.627C390.384 291.627 386.888 295.059 386.888 299.293C386.888 303.527 390.384 306.96 394.696 306.96Z" fill="white"/>
<path d="M381.63 304.783C382.256 304.966 382.809 305.34 383.21 305.853C383.37 306.056 383.468 306.301 383.492 306.558C383.517 306.815 383.466 307.074 383.347 307.303C383.229 307.533 383.046 307.723 382.822 307.852C382.598 307.981 382.341 308.043 382.083 308.03C380.751 307.873 379.45 307.521 378.22 306.988C377.991 306.885 377.748 306.813 377.499 306.776C376.28 306.609 372.251 305.632 372.445 300.318C372.478 299.64 372.242 298.977 371.789 298.473C370.597 297.144 368.324 294.321 367.806 291.517C367.711 290.852 367.767 290.175 367.97 289.535C368.173 288.894 368.517 288.308 368.978 287.819C369.438 287.33 370.003 286.951 370.631 286.709C371.258 286.468 371.932 286.37 372.602 286.424L381.186 286.968C381.627 286.976 382.048 287.158 382.354 287.474C382.661 287.791 382.829 288.216 382.822 288.657C382.815 289.097 382.632 289.516 382.315 289.823C381.998 290.129 381.572 290.297 381.131 290.29L378.109 290.373C377.942 290.402 377.787 290.477 377.659 290.59C377.532 290.702 377.439 290.847 377.389 291.009C377.355 291.224 377.399 291.444 377.513 291.629C377.626 291.815 377.801 291.955 378.008 292.024H381.417C381.846 292.031 382.255 292.206 382.556 292.512C382.857 292.817 383.025 293.229 383.025 293.657V293.657C383.024 294.055 382.876 294.439 382.611 294.736C382.345 295.034 381.98 295.224 381.584 295.271L380.096 295.447C379.893 295.47 379.697 295.534 379.52 295.637C379.343 295.739 379.189 295.877 379.069 296.042C378.948 296.207 378.863 296.394 378.819 296.594C378.774 296.793 378.772 296.999 378.812 297.199V297.199C378.874 297.541 379.054 297.849 379.321 298.072C379.588 298.294 379.924 298.416 380.272 298.417H382.12C382.616 298.417 383.093 298.609 383.45 298.954C383.807 299.298 384.016 299.767 384.032 300.262V300.262C384.05 300.761 383.872 301.247 383.535 301.616C383.198 301.985 382.73 302.208 382.231 302.237L380.179 302.356C380.081 302.362 379.986 302.389 379.899 302.435C379.812 302.481 379.736 302.546 379.677 302.623C379.617 302.701 379.575 302.791 379.553 302.887C379.532 302.982 379.531 303.082 379.551 303.178C379.551 303.178 379.311 304.109 381.63 304.783Z" fill="#F9B499"/>
<path opacity="0.4" d="M715.016 108.584H533.275V376.077H715.016V108.584Z" fill="white"/>
<path opacity="0.4" d="M715.69 376.76H532.591V107.938H715.69V376.76ZM533.949 375.404H714.332V109.267H533.949V375.404Z" fill="#2F2E41"/>
<path d="M382.813 288.832C382.813 288.832 382.351 290.299 381.131 290.289L378.109 290.372C377.982 290.387 377.86 290.432 377.753 290.502C377.646 290.573 377.557 290.668 377.494 290.78C377.431 290.891 377.395 291.016 377.39 291.144C377.384 291.272 377.409 291.4 377.462 291.516C377.237 291.435 377.031 291.307 376.859 291.141C376.688 290.974 376.553 290.772 376.466 290.549C376.378 290.327 376.34 290.088 376.352 289.849C376.365 289.61 376.428 289.376 376.538 289.164C376.538 289.164 376.76 288.62 378.46 288.721L382.813 288.832Z" fill="#F7A48B"/>
<path d="M294.65 215.139H186.934V216.495H294.65V215.139Z" fill="#2F2E41"/>
<path d="M181.02 211.227H173.803V218.432H181.02V211.227Z" fill="#190435"/>
<path d="M294.65 230.877H186.934V232.234H294.65V230.877Z" fill="#2F2E41"/>
<path d="M181.02 226.947H173.803V234.152H181.02V226.947Z" fill="#190435"/>
<path d="M294.65 246.598H186.934V247.954H294.65V246.598Z" fill="#2F2E41"/>
<path d="M181.02 242.667H173.803V249.873H181.02V242.667Z" fill="#190435"/>
<path d="M294.65 262.318H186.934V263.674H294.65V262.318Z" fill="#2F2E41"/>
<path d="M181.02 258.406H173.803V265.611H181.02V258.406Z" fill="#190435"/>
<path d="M160.599 142.414H159.24V290.714H160.599V142.414Z" fill="#2F2E41"/>
<path d="M195.315 199.64C190.664 199.641 186.117 198.265 182.249 195.686C178.381 193.107 175.366 189.44 173.587 185.149C171.807 180.859 171.343 176.138 172.252 171.583C173.161 167.029 175.402 162.846 178.693 159.565C181.984 156.283 186.176 154.05 190.739 153.147C195.302 152.245 200.03 152.715 204.325 154.496C208.621 156.278 212.29 159.292 214.869 163.157C217.448 167.021 218.821 171.563 218.814 176.207V176.207C218.801 182.423 216.321 188.38 211.916 192.773C207.511 197.165 201.541 199.635 195.315 199.64ZM195.315 154.056C190.929 154.056 186.641 155.355 182.994 157.788C179.347 160.221 176.505 163.679 174.826 167.724C173.148 171.77 172.709 176.222 173.564 180.517C174.42 184.812 176.532 188.757 179.634 191.854C182.735 194.95 186.687 197.059 190.989 197.913C195.291 198.768 199.75 198.329 203.802 196.653C207.854 194.978 211.318 192.14 213.755 188.499C216.192 184.857 217.492 180.577 217.492 176.198V176.198C217.492 170.325 215.156 164.694 210.997 160.541C206.838 156.389 201.197 154.056 195.315 154.056Z" fill="#2F2E41"/>
<path d="M195.315 182.333C193.578 182.334 191.88 181.822 190.435 180.86C188.991 179.898 187.864 178.53 187.198 176.929C186.532 175.327 186.357 173.565 186.695 171.864C187.033 170.164 187.868 168.601 189.095 167.374C190.323 166.148 191.887 165.312 193.59 164.973C195.293 164.634 197.058 164.807 198.663 165.47C200.268 166.134 201.639 167.257 202.604 168.698C203.569 170.14 204.084 171.835 204.084 173.568C204.084 175.891 203.161 178.119 201.516 179.762C199.872 181.406 197.642 182.33 195.315 182.333V182.333ZM195.315 166.16C193.853 166.16 192.424 166.593 191.208 167.404C189.992 168.215 189.045 169.368 188.485 170.716C187.926 172.065 187.779 173.549 188.065 174.981C188.35 176.412 189.054 177.727 190.088 178.759C191.122 179.792 192.439 180.495 193.873 180.779C195.307 181.064 196.793 180.918 198.144 180.359C199.495 179.801 200.649 178.855 201.462 177.641C202.274 176.427 202.707 175 202.707 173.541C202.707 171.583 201.929 169.706 200.542 168.322C199.156 166.938 197.276 166.16 195.315 166.16V166.16Z" fill="#2F2E41"/>
<path d="M195.315 199.64C190.203 199.649 185.231 197.976 181.168 194.879L180.826 194.639L180.9 194.234C181.468 190.83 183.227 187.738 185.864 185.508C188.501 183.278 191.845 182.054 195.301 182.054C198.757 182.054 202.101 183.278 204.738 185.508C207.375 187.738 209.134 190.83 209.703 194.234L209.767 194.639L209.435 194.879C205.378 197.968 200.417 199.641 195.315 199.64V199.64ZM182.332 194.058C186.104 196.805 190.652 198.285 195.32 198.285C199.988 198.285 204.536 196.805 208.307 194.058C207.71 191.058 206.089 188.358 203.721 186.417C201.353 184.476 198.384 183.416 195.32 183.416C192.256 183.416 189.287 184.476 186.919 186.417C184.551 188.358 182.93 191.058 182.332 194.058Z" fill="#2F2E41"/>
<path d="M125.818 186.134C123.512 186.136 121.257 185.455 119.339 184.177C117.42 182.9 115.924 181.083 115.039 178.957C114.155 176.831 113.921 174.491 114.369 172.232C114.816 169.974 115.924 167.898 117.553 166.268C119.182 164.639 121.258 163.527 123.519 163.075C125.78 162.623 128.125 162.851 130.256 163.729C132.388 164.607 134.211 166.096 135.495 168.009C136.779 169.921 137.466 172.17 137.47 174.473V174.473C137.473 177.561 136.247 180.525 134.062 182.711C131.877 184.898 128.912 186.129 125.818 186.134V186.134ZM125.818 164.214C123.778 164.21 121.783 164.811 120.085 165.94C118.387 167.068 117.062 168.674 116.278 170.555C115.495 172.435 115.287 174.505 115.682 176.504C116.077 178.502 117.057 180.338 118.498 181.78C119.938 183.222 121.775 184.205 123.775 184.605C125.775 185.005 127.85 184.803 129.735 184.026C131.621 183.249 133.233 181.931 134.368 180.238C135.503 178.546 136.11 176.556 136.112 174.519V174.519C136.112 171.791 135.028 169.174 133.098 167.242C131.169 165.31 128.551 164.221 125.818 164.214Z" fill="#2F2E41"/>
<path d="M125.818 177.821C124.915 177.812 124.035 177.537 123.289 177.03C122.543 176.522 121.964 175.806 121.625 174.971C121.286 174.136 121.202 173.219 121.384 172.336C121.565 171.453 122.005 170.644 122.646 170.01C123.288 169.376 124.103 168.945 124.989 168.773C125.875 168.6 126.792 168.694 127.625 169.04C128.458 169.387 129.17 169.973 129.67 170.723C130.171 171.473 130.438 172.354 130.438 173.255V173.255C130.426 174.47 129.934 175.632 129.069 176.487C128.203 177.342 127.035 177.822 125.818 177.821V177.821ZM125.818 170.054C125.181 170.054 124.559 170.242 124.03 170.595C123.501 170.949 123.089 171.45 122.846 172.038C122.603 172.625 122.54 173.271 122.665 173.894C122.789 174.517 123.097 175.089 123.547 175.538C123.998 175.986 124.572 176.291 125.196 176.414C125.821 176.537 126.467 176.472 127.055 176.228C127.642 175.983 128.144 175.57 128.496 175.041C128.848 174.512 129.035 173.89 129.034 173.255C129.034 172.834 128.95 172.417 128.789 172.028C128.627 171.639 128.39 171.285 128.091 170.988C127.792 170.691 127.438 170.455 127.048 170.295C126.658 170.134 126.24 170.052 125.818 170.054V170.054Z" fill="#2F2E41"/>
<path d="M125.818 186.134C123.286 186.143 120.821 185.32 118.804 183.79L118.472 183.532V183.126C118.777 181.421 119.673 179.878 121.004 178.766C122.334 177.655 124.014 177.045 125.749 177.045C127.483 177.045 129.163 177.655 130.493 178.766C131.824 179.878 132.72 181.421 133.025 183.126V183.532L132.693 183.79C130.711 185.286 128.302 186.107 125.818 186.134V186.134ZM119.959 182.951C121.686 184.123 123.726 184.749 125.813 184.749C127.901 184.749 129.94 184.123 131.667 182.951C131.348 181.641 130.597 180.477 129.536 179.644C128.474 178.811 127.163 178.359 125.813 178.359C124.463 178.359 123.152 178.811 122.091 179.644C121.029 180.477 120.279 181.641 119.959 182.951V182.951Z" fill="#2F2E41"/>
<path d="M125.818 232.067C123.509 232.071 121.251 231.391 119.33 230.113C117.408 228.836 115.91 227.018 115.023 224.889C114.137 222.761 113.903 220.418 114.35 218.157C114.797 215.896 115.907 213.818 117.537 212.186C119.168 210.554 121.246 209.442 123.51 208.99C125.774 208.538 128.121 208.766 130.255 209.646C132.389 210.526 134.213 212.018 135.497 213.933C136.782 215.849 137.468 218.101 137.47 220.406V220.406C137.47 223.494 136.243 226.456 134.059 228.642C131.874 230.828 128.911 232.06 125.818 232.067V232.067ZM125.818 210.129C123.778 210.125 121.783 210.726 120.085 211.855C118.386 212.983 117.062 214.589 116.278 216.47C115.495 218.35 115.287 220.42 115.682 222.419C116.077 224.417 117.057 226.253 118.498 227.695C119.938 229.137 121.775 230.12 123.775 230.52C125.775 230.92 127.849 230.718 129.735 229.941C131.621 229.164 133.233 227.846 134.368 226.153C135.503 224.461 136.11 222.471 136.112 220.434C136.114 217.705 135.031 215.087 133.101 213.154C131.171 211.222 128.551 210.134 125.818 210.129V210.129Z" fill="#2F2E41"/>
<path d="M125.818 223.728C124.915 223.719 124.035 223.443 123.289 222.936C122.543 222.429 121.964 221.712 121.625 220.877C121.286 220.042 121.202 219.125 121.384 218.242C121.565 217.359 122.005 216.55 122.646 215.916C123.288 215.282 124.103 214.852 124.989 214.679C125.875 214.507 126.792 214.6 127.625 214.947C128.458 215.294 129.17 215.879 129.67 216.629C130.171 217.379 130.438 218.26 130.438 219.161C130.426 220.376 129.934 221.538 129.069 222.393C128.203 223.248 127.035 223.728 125.818 223.728V223.728ZM125.818 215.951C125.182 215.951 124.56 216.139 124.031 216.492C123.503 216.844 123.09 217.346 122.847 217.933C122.604 218.519 122.54 219.165 122.664 219.787C122.788 220.41 123.094 220.982 123.544 221.431C123.994 221.88 124.567 222.186 125.191 222.31C125.814 222.434 126.461 222.37 127.048 222.127C127.636 221.884 128.138 221.473 128.492 220.945C128.845 220.417 129.034 219.796 129.034 219.161V219.161C129.034 218.31 128.695 217.493 128.092 216.891C127.489 216.289 126.671 215.951 125.818 215.951V215.951Z" fill="#2F2E41"/>
<path d="M125.818 232.067C123.284 232.065 120.821 231.236 118.804 229.706L118.472 229.457V229.06C118.777 227.355 119.673 225.811 121.004 224.7C122.334 223.588 124.014 222.979 125.749 222.979C127.483 222.979 129.163 223.588 130.493 224.7C131.824 225.811 132.72 227.355 133.025 229.06V229.457L132.693 229.706C130.713 231.206 128.303 232.034 125.818 232.067V232.067ZM119.959 228.866C121.684 230.043 123.724 230.672 125.813 230.672C127.902 230.672 129.942 230.043 131.667 228.866C131.348 227.557 130.597 226.392 129.536 225.559C128.474 224.726 127.163 224.274 125.813 224.274C124.463 224.274 123.152 224.726 122.091 225.559C121.029 226.392 120.279 227.557 119.959 228.866Z" fill="#2F2E41"/>
<path d="M125.818 277.955C123.509 277.959 121.251 277.279 119.33 276.001C117.408 274.723 115.91 272.905 115.023 270.777C114.137 268.649 113.903 266.306 114.35 264.045C114.797 261.784 115.907 259.706 117.537 258.074C119.168 256.442 121.246 255.33 123.51 254.878C125.774 254.426 128.121 254.654 130.255 255.534C132.389 256.414 134.213 257.906 135.497 259.821C136.782 261.736 137.468 263.989 137.47 266.294C137.47 269.382 136.243 272.344 134.059 274.53C131.874 276.716 128.911 277.948 125.818 277.955ZM125.818 256.017C123.778 256.013 121.783 256.614 120.085 257.742C118.386 258.871 117.062 260.477 116.278 262.357C115.495 264.238 115.287 266.308 115.682 268.306C116.077 270.304 117.057 272.141 118.498 273.583C119.938 275.025 121.775 276.008 123.775 276.408C125.775 276.808 127.849 276.606 129.735 275.829C131.621 275.051 133.233 273.733 134.368 272.041C135.503 270.349 136.11 268.358 136.112 266.322C136.109 263.594 135.025 260.979 133.096 259.047C131.167 257.116 128.55 256.026 125.818 256.017Z" fill="#2F2E41"/>
<path d="M125.818 269.624C124.915 269.615 124.035 269.339 123.288 268.832C122.542 268.324 121.963 267.607 121.624 266.771C121.285 265.936 121.202 265.018 121.384 264.135C121.567 263.252 122.007 262.443 122.649 261.809C123.292 261.176 124.108 260.746 124.994 260.575C125.881 260.403 126.798 260.497 127.631 260.846C128.464 261.194 129.175 261.781 129.675 262.532C130.174 263.283 130.44 264.165 130.438 265.067V265.067C130.423 266.281 129.93 267.44 129.065 268.293C128.2 269.146 127.034 269.624 125.818 269.624V269.624ZM125.818 261.856C125.182 261.856 124.56 262.045 124.031 262.397C123.502 262.75 123.09 263.252 122.847 263.838C122.604 264.425 122.54 265.07 122.664 265.693C122.788 266.316 123.094 266.888 123.544 267.337C123.994 267.786 124.567 268.092 125.19 268.216C125.814 268.339 126.461 268.276 127.048 268.033C127.636 267.79 128.138 267.378 128.492 266.85C128.845 266.323 129.034 265.702 129.034 265.067V265.067C129.034 264.215 128.695 263.399 128.092 262.797C127.489 262.195 126.671 261.856 125.818 261.856V261.856Z" fill="#2F2E41"/>
<path d="M125.818 277.955C123.284 277.963 120.819 277.136 118.804 275.603L118.472 275.344V274.92C118.755 273.192 119.644 271.621 120.98 270.487C122.317 269.354 124.013 268.731 125.767 268.731C127.521 268.731 129.217 269.354 130.554 270.487C131.89 271.621 132.779 273.192 133.062 274.92V275.317L132.73 275.575C130.745 277.095 128.319 277.93 125.818 277.955ZM119.959 274.763C121.686 275.935 123.726 276.561 125.813 276.561C127.901 276.561 129.94 275.935 131.667 274.763C131.348 273.454 130.597 272.289 129.536 271.456C128.474 270.624 127.163 270.171 125.813 270.171C124.463 270.171 123.152 270.624 122.091 271.456C121.029 272.289 120.279 273.454 119.959 274.763Z" fill="#2F2E41"/>
<path d="M288.218 162.507H230.429V163.863H288.218V162.507Z" fill="#2F2E41"/>
<path d="M288.218 175.773H230.429V177.13H288.218V175.773Z" fill="#2F2E41"/>
<path d="M288.218 189.049H230.429V190.405H288.218V189.049Z" fill="#2F2E41"/>
<path d="M247.598 481.396C279.749 481.396 305.812 455.374 305.812 423.275C305.812 391.176 279.749 365.154 247.598 365.154C215.446 365.154 189.383 391.176 189.383 423.275C189.383 455.374 215.446 481.396 247.598 481.396Z" fill="white"/>
<path d="M247.644 482.069C235.997 482.069 224.611 478.621 214.927 472.161C205.242 465.7 197.694 456.518 193.237 445.775C188.78 435.031 187.614 423.21 189.886 411.805C192.158 400.4 197.767 389.924 206.003 381.701C214.239 373.479 224.732 367.879 236.155 365.611C247.578 363.342 259.419 364.506 270.18 368.956C280.94 373.406 290.138 380.942 296.608 390.611C303.079 400.279 306.533 411.647 306.533 423.275C306.533 430.996 305.01 438.641 302.05 445.775C299.091 452.908 294.753 459.389 289.285 464.849C283.816 470.308 277.324 474.639 270.18 477.594C263.035 480.548 255.377 482.069 247.644 482.069ZM247.644 365.828C236.266 365.83 225.143 369.2 215.684 375.512C206.224 381.825 198.852 390.796 194.499 401.292C190.146 411.787 189.008 423.336 191.229 434.477C193.449 445.618 198.929 455.852 206.976 463.884C215.022 471.916 225.273 477.385 236.433 479.601C247.592 481.816 259.159 480.678 269.671 476.331C280.183 471.983 289.168 464.621 295.489 455.176C301.81 445.73 305.184 434.626 305.184 423.266V423.266C305.162 408.04 299.091 393.445 288.304 382.682C277.517 371.919 262.894 365.868 247.644 365.856V365.828Z" fill="#190435"/>
<path d="M309.961 499.459H187.313V500.815H309.961V499.459Z" fill="#2F2E41"/>
<path d="M309.961 511.914H187.313V513.27H309.961V511.914Z" fill="#2F2E41"/>
<path d="M309.961 532.874H202.245V534.23H309.961V532.874Z" fill="#2F2E41"/>
<path d="M196.35 528.953H189.133V536.158H196.35V528.953Z" fill="#190435"/>
<path d="M309.961 548.594H202.245V549.95H309.961V548.594Z" fill="#2F2E41"/>
<path d="M196.35 544.683H189.133V551.888H196.35V544.683Z" fill="#190435"/>
<path d="M309.961 564.314H202.245V565.671H309.961V564.314Z" fill="#2F2E41"/>
<path d="M196.35 560.403H189.133V567.608H196.35V560.403Z" fill="#190435"/>
<path d="M309.961 580.035H202.245V581.391H309.961V580.035Z" fill="#2F2E41"/>
<path d="M196.35 576.123H189.133V583.328H196.35V576.123Z" fill="#190435"/>
<path d="M234.707 384.703C237.354 380.701 240.992 377.448 245.267 375.259C249.542 373.071 254.311 372.021 259.111 372.212C275.956 372.756 280.041 391.17 279.44 396.586C279.172 399.699 278.339 402.737 276.982 405.553L269.645 399.307C274.695 404.323 278.623 410.35 281.168 416.993C285.234 427.823 283.284 441.901 278.119 445.158C272.953 448.415 269.423 447.058 269.423 447.058L269.969 439.724C269.969 439.724 265.08 448.405 256.93 450.029C248.78 451.653 225.411 452.741 221.872 448.682C219.74 446.183 218.249 443.204 217.529 440.001L216.993 447.058C216.993 447.058 209.656 441.634 209.379 435.379C209.102 429.124 212.909 420.489 214.803 415.858C216.698 411.227 218.065 408.8 218.601 401.743C219.137 394.685 218.333 390.912 223.221 386.281C228.109 381.65 234.707 384.703 234.707 384.703Z" fill="#2F2E41"/>
<path d="M223.378 458.701C218.878 460.638 211.597 462.391 206.644 464.559C217.51 475.301 232.174 481.343 247.465 481.379C262.757 481.415 277.449 475.443 288.366 464.753C286.463 463.819 284.469 463.083 282.415 462.557C273.711 460.149 261.338 453.083 259.887 450.666C258.436 448.249 257.013 439.835 257.013 439.835L236.897 437.132C236.897 437.132 237.904 447.64 237.904 449.577C237.904 451.514 230.161 455.804 223.378 458.701Z" fill="#F9B499"/>
<path d="M269.543 457.206L248.466 477.152L228.045 456.542C226.511 457.308 224.921 458.037 223.424 458.701C218.924 460.638 211.643 462.391 206.69 464.559C217.556 475.301 232.22 481.343 247.511 481.379C262.803 481.415 277.495 475.443 288.412 464.753C286.51 463.819 284.515 463.083 282.462 462.557C277.984 461.218 273.655 459.425 269.543 457.206V457.206Z" fill="#190435"/>
<path d="M682.573 269.44H559.924V270.796H682.573V269.44Z" fill="#2F2E41"/>
<path d="M682.573 281.895H559.924V283.251H682.573V281.895Z" fill="#2F2E41"/>
<path d="M682.582 302.854H574.866V304.211H682.582V302.854Z" fill="#2F2E41"/>
<path d="M568.961 298.925H561.745V306.13H568.961V298.925Z" fill="#190435"/>
<path d="M682.582 318.575H574.866V319.931H682.582V318.575Z" fill="#2F2E41"/>
<path d="M568.961 314.663H561.745V321.868H568.961V314.663Z" fill="#190435"/>
<path d="M682.582 334.295H574.866V335.651H682.582V334.295Z" fill="#2F2E41"/>
<path d="M568.961 330.383H561.745V337.588H568.961V330.383Z" fill="#190435"/>
<path d="M682.582 350.016H574.866V351.372H682.582V350.016Z" fill="#2F2E41"/>
<path d="M568.961 346.104H561.745V353.309H568.961V346.104Z" fill="#190435"/>
<path d="M620.227 251.377C652.379 251.377 678.442 225.355 678.442 193.256C678.442 161.157 652.379 135.135 620.227 135.135C588.076 135.135 562.013 161.157 562.013 193.256C562.013 225.355 588.076 251.377 620.227 251.377Z" fill="white"/>
<path d="M589.928 218.764L575.411 230.361C585.263 242.215 599.425 249.681 614.787 251.116C630.148 252.552 645.452 247.841 657.337 238.018C659.838 235.954 662.159 233.683 664.276 231.228L642.275 216.864L589.928 218.764Z" fill="#190435"/>
<path d="M608.141 202.352C608.141 202.352 595.352 204.013 591.785 209.207C588.218 214.401 585.622 219.355 588.228 222.464C592.54 227.113 597.314 231.314 602.476 235.001C606.736 237.843 613.389 247.557 613.389 247.557C613.919 243.474 614.227 239.366 614.313 235.25C614.313 230.038 609.804 224.41 608.889 219.622C607.975 214.834 615.764 207.325 621.198 209.677C626.631 212.03 630.928 219.161 630.697 222.464C630.466 225.767 631.621 229.844 632.822 235.481C634.023 241.118 634.957 246.026 634.957 246.026C634.957 246.026 643.005 237.898 645.629 229.088C648.254 220.277 646.978 211.347 637.313 205.434C627.647 199.52 608.141 202.352 608.141 202.352Z" fill="#190435"/>
<path opacity="0.2" d="M608.141 202.352C608.141 202.352 595.352 204.013 591.785 209.207C588.218 214.401 585.622 219.355 588.228 222.464C592.54 227.113 597.314 231.314 602.476 235.001C606.736 237.843 613.389 247.557 613.389 247.557C613.919 243.474 614.227 239.366 614.313 235.25C614.313 230.038 609.804 224.41 608.889 219.622C607.975 214.834 615.764 207.325 621.198 209.677C626.631 212.03 630.928 219.161 630.697 222.464C630.466 225.767 631.621 229.844 632.822 235.481C634.023 241.118 634.957 246.026 634.957 246.026C634.957 246.026 643.005 237.898 645.629 229.088C648.254 220.277 646.978 211.347 637.313 205.434C627.647 199.52 608.141 202.352 608.141 202.352Z" fill="white"/>
<path opacity="0.2" d="M641.49 208.662C640.224 207.428 638.819 206.345 637.304 205.434C627.573 199.511 608.141 202.352 608.141 202.352C608.141 202.352 595.352 204.013 591.785 209.207C591.379 209.816 590.972 210.425 590.593 211.052C590.138 214.235 590.9 217.473 592.728 220.121C598.05 228.571 609.009 232.621 614.286 235.02C614.119 229.9 609.776 224.346 608.862 219.705C607.947 215.065 615.736 207.408 621.17 209.76C626.603 212.113 630.9 219.244 630.669 222.547C630.438 225.85 631.593 229.927 632.794 235.555L632.998 236.588C633.404 236.191 633.811 235.785 634.217 235.324C639.486 229.558 642.366 222.011 642.275 214.207C642.275 212.331 642.011 210.465 641.49 208.662V208.662Z" fill="white"/>
<path d="M606.006 193.117C606.006 193.117 607.439 210.157 607.91 214.899C608.381 219.64 610.987 231.698 618.998 234.051C627.01 236.403 631.796 227.205 630.623 220.342C629.449 213.478 627.315 207.085 627.315 204.714C627.371 203.683 627.287 202.65 627.065 201.642L606.006 193.117Z" fill="#F9B499"/>
<path d="M627.102 201.596L606.006 193.081C606.006 193.081 607.097 206.042 607.679 212.5L627.361 204.308C627.386 203.397 627.299 202.486 627.102 201.596Z" fill="#F7A48B"/>
<path d="M632.101 161.216C632.101 161.216 635.89 182.019 635.89 185.811C635.89 189.602 632.415 200.627 630.844 203.145C629.274 205.664 621.345 207.205 618.213 205.968C615.08 204.732 606.2 196.494 604.352 193.053C603.214 190.969 602.366 188.741 601.829 186.429C601.829 186.429 597.403 188.329 593.938 183.274C590.473 178.218 592.358 173.513 595.786 173.199L598.946 174.122C598.946 174.122 593.264 164.352 595.149 159.942C597.034 155.533 619.784 153.955 624.515 153.955C629.246 153.955 632.101 161.216 632.101 161.216Z" fill="#F9B499"/>
<path d="M634.559 192.739C634.559 192.739 633.949 185.553 632.508 184.519C631.066 183.486 620.301 184.316 620.301 184.316C620.301 184.316 609.453 181.244 609.213 183.707C609.056 185.553 609.545 195.138 609.998 199.631C613.038 202.546 616.466 205.295 618.139 205.969C621.29 207.232 629.227 205.664 630.771 203.146C632.354 199.827 633.592 196.356 634.467 192.785L634.559 192.739ZM632.092 193.975C630.854 198.035 628.183 200.544 626.954 199.935C625.725 199.326 624.681 195.405 623.655 194.999C622.63 194.594 621.807 196.642 620.578 198.496C619.349 200.35 616.051 200.959 614.609 199.732C613.168 198.505 611.514 187.195 611.514 185.756C611.514 184.316 626.548 186.586 626.548 186.586C628.116 186.384 629.699 186.316 631.279 186.383C632.295 186.586 633.321 189.87 632.092 193.975V193.975Z" fill="#2F2E41"/>
<path d="M593.901 147.664C593.901 147.664 585.761 155.791 588.856 162.803C591.952 169.814 599.945 182.637 599.945 182.637H601.516L601.201 177.222C601.201 177.222 606.247 175.377 605.276 170.93C604.731 168.322 603.659 165.851 602.125 163.67C602.125 163.67 607.549 167.729 613.805 166.825C620.061 165.921 622.963 158.319 625.171 160.838C627.379 163.356 630.854 164.906 637.47 161.465C644.086 158.024 648.318 146.261 641.083 141.529C633.848 136.796 627.056 140.993 623.267 141.925C619.479 142.857 616.642 136.51 608.122 139.093C602.77 140.787 597.896 143.724 593.901 147.664V147.664Z" fill="#2F2E41"/>
<path d="M620.227 252.05C608.58 252.053 597.192 248.608 587.506 242.151C577.819 235.693 570.269 226.512 565.808 215.77C561.348 205.028 560.179 193.206 562.448 181.8C564.717 170.394 570.324 159.916 578.558 151.692C586.792 143.467 597.284 137.865 608.707 135.594C620.131 133.323 631.972 134.484 642.734 138.932C653.496 143.381 662.695 150.915 669.168 160.583C675.64 170.251 679.096 181.618 679.098 193.246V193.246C679.083 208.833 672.877 223.777 661.841 234.801C650.804 245.824 635.839 252.028 620.227 252.05V252.05ZM620.227 135.808C608.846 135.803 597.719 139.167 588.253 145.476C578.787 151.785 571.408 160.754 567.048 171.25C562.688 181.746 561.544 193.297 563.761 204.443C565.977 215.588 571.454 225.827 579.499 233.864C587.544 241.901 597.796 247.376 608.958 249.596C620.12 251.816 631.69 250.681 642.206 246.335C652.722 241.989 661.711 234.628 668.036 225.181C674.361 215.735 677.738 204.628 677.74 193.265V193.265C677.725 178.039 671.661 163.441 660.879 152.673C650.098 141.905 635.478 135.846 620.227 135.827V135.808Z" fill="#190435"/>
<path d="M258.224 445.711L256.986 439.743L236.869 437.03C236.869 437.03 242.94 448.562 258.224 445.711Z" fill="#F7A48B"/>
<path d="M231.75 413.754C231.75 413.754 233.376 401.567 237.174 395.036C240.972 388.504 249.131 390.423 252.393 392.591C255.655 394.759 260.811 406.429 263.768 414.012C266.725 421.596 268.111 425.941 268.111 425.941C268.111 425.941 263.417 435.831 257.023 439.779C250.24 444.005 242.755 443.838 236.906 437.067C234.894 434.71 233.249 432.063 232.027 429.216C232.027 429.216 225.245 427.039 223.609 421.347C221.974 415.655 223.332 412.656 226.049 411.872C228.765 411.088 231.75 413.754 231.75 413.754Z" fill="#F9B499"/>
<path d="M354.417 127.653H89.9463V142.027H354.417V127.653Z" fill="#190435"/>
<path d="M325.808 211.771C340.685 211.771 352.744 199.731 352.744 184.879C352.744 170.027 340.685 157.987 325.808 157.987C310.932 157.987 298.873 170.027 298.873 184.879C298.873 199.731 310.932 211.771 325.808 211.771Z" fill="#190435"/>
<path d="M340.686 207.297L375.3 247.659L379.939 244.07L345.768 202.933L343.116 202.629L340.085 205.406L340.686 207.297Z" fill="#190435"/>
<path d="M325.809 207.02C338.057 207.02 347.986 197.107 347.986 184.879C347.986 172.651 338.057 162.738 325.809 162.738C313.561 162.738 303.632 172.651 303.632 184.879C303.632 197.107 313.561 207.02 325.809 207.02Z" fill="white"/>
<path d="M540.612 510.715C535.577 507.567 529.887 505.614 523.979 505.004C521.308 504.727 518.287 504.81 516.115 506.443C515.864 506.59 515.657 506.8 515.514 507.053C515.371 507.306 515.298 507.592 515.302 507.882C515.437 508.287 515.712 508.631 516.078 508.851C519.605 511.359 523.751 512.856 528.069 513.182C532.387 513.507 536.711 512.647 540.575 510.696" fill="#190435"/>
<path d="M540.187 510.17C536.346 507.361 532.762 504.218 529.477 500.779C526.177 497.307 523.856 493.026 522.75 488.37C522.535 487.68 522.472 486.953 522.565 486.236C522.657 485.52 522.903 484.832 523.286 484.219C531.842 490.87 538.551 499.505 540.205 510.198" fill="#190435"/>
<path d="M540.565 510.604C539.769 505.945 539.838 501.179 540.769 496.544C541.726 491.879 544.4 487.742 548.263 484.948C549.741 488.398 549.104 492.374 548.069 496.018C546.428 501.583 543.894 506.846 540.565 511.6" fill="#190435"/>
<path d="M548.882 525.595C543.854 526.396 539.203 528.744 535.576 532.311C531.758 535.779 529.098 540.332 527.952 545.356C532.942 545.052 537.193 541.537 540.251 537.598C543.31 533.658 545.445 529.295 548.817 525.604" fill="#190435"/>
<path d="M550.73 528.003C548.728 522.928 548.027 517.434 548.688 512.02C549.35 506.606 551.354 501.442 554.519 496.996C557.42 507.283 556.367 518.907 550.73 528.003Z" fill="#190435"/>
<path d="M561.818 541.158C557.179 540.882 552.56 541.97 548.534 544.289C544.508 546.608 541.252 550.055 539.17 554.203C538.989 554.458 538.879 554.757 538.853 555.069C538.827 555.38 538.886 555.693 539.022 555.975C539.218 556.166 539.457 556.306 539.72 556.383C539.983 556.461 540.26 556.472 540.529 556.417C545.001 556.131 548.956 553.447 552.236 550.375C555.517 547.303 558.363 543.788 561.976 541.149" fill="#190435"/>
<path d="M561.43 540.439C559.046 532.779 558.899 524.599 561.005 516.859C561.846 513.814 563.251 510.622 566.06 509.202C566.137 509.135 566.227 509.085 566.324 509.054C566.421 509.022 566.523 509.011 566.624 509.019C566.726 509.028 566.825 509.057 566.915 509.104C567.005 509.151 567.085 509.215 567.15 509.294C567.228 509.391 567.282 509.504 567.307 509.626C568.258 511.75 568.668 514.077 568.499 516.397C568.338 518.704 567.986 520.994 567.446 523.243C566.522 527.431 566.115 531.924 563.75 535.531C563.212 536.386 562.728 537.274 562.299 538.188C561.856 539.111 561.855 539.443 561.458 540.162" fill="#190435"/>
<path d="M590.741 544.793C589.759 540.491 589.727 536.027 590.648 531.711C591.569 527.395 593.42 523.331 596.073 519.802C596.461 519.294 596.997 518.759 597.588 518.824C598.512 518.907 598.799 520.161 598.762 521.139C598.374 529.617 595.604 537.814 590.769 544.793" fill="#190435"/>
<path d="M593.384 546.629C598.51 547.831 603.836 547.91 608.996 546.862C614.156 545.814 619.028 543.664 623.277 540.559C618.279 538.039 612.561 537.329 607.097 538.548C601.691 539.775 596.766 542.238 593.393 546.602" fill="#190435"/>
<path d="M595.602 541.103C598.567 536.538 602.571 532.738 607.288 530.013C612.004 527.287 617.299 525.713 622.741 525.42C621.502 529.774 617.908 533.16 613.87 535.208C609.724 537.072 605.339 538.354 600.841 539.018C599.113 539.35 596.738 539.719 595.602 541.076" fill="#190435"/>
<path d="M591.305 514.46C593.002 509.31 594.163 503.999 594.77 498.611C595.362 493.183 594.258 487.704 591.61 482.927C586.361 493.075 585.825 504.912 591.148 515.023" fill="#190435"/>
<path d="M608.945 505.558C615.08 494.404 627.592 485.511 640.27 484.274C635.382 496.415 622.066 505.807 608.945 505.558Z" fill="#190435"/>
<path d="M605.101 507.734C614.267 509.128 622.066 514.958 630.614 518.51C632.412 519.365 634.402 519.74 636.389 519.598C637.313 519.585 638.211 519.288 638.96 518.748C639.709 518.208 640.273 517.45 640.576 516.578C640.879 515.707 640.905 514.763 640.652 513.875C640.399 512.988 639.878 512.2 639.161 511.618C637.953 510.502 636.533 509.639 634.984 509.081C625.652 505.207 615.663 505.087 605.84 507.458" fill="#190435"/>
<path d="M599.815 514.146C601.885 514.727 602.587 515.807 604.241 517.2C609.838 521.949 616.456 525.346 623.582 527.126C624.312 527.311 625.291 527.376 625.651 526.711C625.773 526.39 625.79 526.04 625.701 525.708C625.611 525.377 625.419 525.082 625.152 524.866C622.043 521.227 618.008 518.492 613.473 516.951C609.009 515.29 605.156 513.261 599.815 513.722" fill="#190435"/>
<path d="M593.837 475.427C597.588 478.88 602.02 481.512 606.85 483.154C611.679 484.797 616.799 485.414 621.881 484.966C622.37 484.975 622.846 484.808 623.221 484.495C623.924 483.739 623.073 482.558 622.242 481.838C613.999 475.427 604.01 472.751 593.864 475.381" fill="#190435"/>
<path d="M600.924 472.835C605.893 469.186 611.656 466.762 617.742 465.758C623.828 464.754 630.065 465.2 635.945 467.059C631.367 471.306 625.487 473.884 619.257 474.375C613.103 474.941 606.897 474.419 600.924 472.835Z" fill="#190435"/>
<path d="M598.115 455.048C597.302 446.819 597.819 440.287 597.246 432.067C597.246 431.412 597.061 430.619 596.442 430.379C595.583 430.047 594.862 431.108 594.594 431.984C593.398 435.814 593.093 439.865 593.703 443.83C594.313 447.795 595.822 451.569 598.115 454.863" fill="#190435"/>
<path d="M597.514 455.952C602.888 452.481 607.523 447.986 611.153 442.723C613.814 439.032 616.125 434.623 615.505 430.111C613.609 430.161 611.747 430.623 610.047 431.464C608.348 432.305 606.852 433.506 605.664 434.982C603.309 437.962 601.594 441.395 600.628 445.066C599.538 448.682 598.78 452.4 597.487 455.952" fill="#190435"/>
<path d="M610.913 452.188C623.198 447.649 634.572 440.957 644.502 432.427C640.501 430.822 635.89 431.79 631.879 433.35C622.763 436.815 615.24 443.503 610.737 452.142" fill="#190435"/>
<path d="M601.284 460.454C607.467 461.333 613.741 461.364 619.932 460.546C625.984 459.531 631.695 457.142 637.341 454.771C637.837 454.618 638.261 454.29 638.533 453.848C638.622 453.588 638.629 453.307 638.553 453.043C638.477 452.779 638.322 452.545 638.108 452.372C637.667 452.031 637.155 451.792 636.611 451.671C630.373 450.17 623.829 450.561 617.816 452.797C612.056 454.759 606.518 457.319 601.294 460.435" fill="#190435"/>
<path d="M565.884 475.704C563.892 471.445 562.835 466.81 562.784 462.11C562.733 457.409 563.689 452.753 565.589 448.452C568.167 452.363 568.472 457.354 568 462.004C567.529 466.654 566.152 471.451 566.014 476.128" fill="#190435"/>
<path d="M548.993 467.207C543.702 467.132 538.453 468.159 533.583 470.225C528.713 472.29 524.327 475.347 520.708 479.2C526.044 479.828 531.445 478.831 536.204 476.34C540.929 473.83 545.392 470.857 549.529 467.465" fill="#190435"/>
<path d="M537.646 463.406C532.471 462.991 527.481 462.354 522.537 463.867C520.023 464.566 517.69 465.799 515.698 467.482C513.706 469.165 512.102 471.259 510.996 473.619C515.871 474.017 520.764 473.099 525.162 470.962C529.532 468.825 533.701 466.299 537.618 463.415" fill="#190435"/>
<path d="M554.426 463.572C549.806 460.546 545.01 457.447 539.641 456.192C534.273 454.937 527.962 455.86 524.191 459.928C528.571 462.502 533.894 462.807 538.976 462.788C544.058 462.77 550.268 462.788 555.064 464.43" fill="#190435"/>
<path d="M554.482 463.83C546.489 456.035 543.532 442.058 546.729 431.403C552.993 440.991 555.733 452.451 554.482 463.83" fill="#190435"/>
<path d="M576.326 441.763C577.823 438.276 578.876 434.632 580.216 431.126C581.441 427.535 583.321 424.2 585.76 421.292C588.251 418.374 591.787 416.546 595.611 416.199C594.39 421.566 592.061 426.619 588.772 431.035C585.483 435.451 581.307 439.134 576.511 441.846" fill="#190435"/>
<path d="M572.426 446.367C569.95 442.944 567.095 438.387 563.722 435.794C560.349 433.202 555.988 431.753 551.885 432.676C554.009 436.393 556.972 439.566 560.537 441.942C564.102 444.319 568.173 445.833 572.426 446.367" fill="#190435"/>
<path d="M573.157 442.04C571.373 437.981 570.05 433.735 569.211 429.382C568.392 424.977 569.092 420.424 571.198 416.467C575.568 424.696 576.964 433.534 573.36 442.104" fill="#190435"/>
<path d="M576.418 416.494C578.886 408.339 586.37 402.324 594.447 399.575C595.447 399.168 596.53 399.003 597.607 399.095C598.143 399.158 598.648 399.376 599.062 399.722C599.475 400.067 599.779 400.526 599.935 401.042C600.231 402.37 599.085 403.699 598.004 404.584C591.7 410.005 584.355 414.086 576.418 416.577" fill="#190435"/>
<path d="M576.418 409.815C576.742 404.566 577.074 399.178 578.784 394.243C580.493 389.307 583.801 384.583 588.597 382.406C589.429 387.72 587.082 393.043 584.245 397.564C581.408 402.084 577.998 406.448 576.252 411.559" fill="#190435"/>
<path d="M576.326 413.45C574.275 407.5 574.081 399.944 570.505 394.759C568.019 391.143 564.036 388.68 561.874 384.842C560.582 388.522 560.764 392.557 562.382 396.106C564.018 399.623 566.275 402.817 569.045 405.535C571.706 408.348 573.942 410.47 576.437 413.45" fill="#190435"/>
<path d="M576.418 588.522C576.261 588.522 576.114 548.852 576.114 499.957C576.114 451.062 576.224 411.393 576.382 411.393C576.539 411.393 576.677 451.062 576.686 499.957C576.696 548.852 576.529 588.522 576.418 588.522Z" fill="#2F2E41"/>
<path d="M611.061 469.726C610.577 469.956 610.073 470.142 609.555 470.279L605.452 471.608C601.987 472.798 597.219 474.495 592.053 476.608C586.888 478.72 582.148 480.649 579.375 482.964C578.279 483.876 577.41 485.028 576.834 486.331C576.428 487.254 576.363 487.835 576.308 487.826C576.252 487.817 576.308 487.678 576.308 487.411C576.368 487.018 576.467 486.631 576.603 486.258C577.14 484.913 577.996 483.72 579.098 482.78C580.751 481.375 582.604 480.225 584.596 479.366C586.796 478.342 589.216 477.263 591.832 476.202C597.015 474.08 601.811 472.438 605.313 471.34C607.069 470.796 608.501 470.418 609.499 470.132C610.005 469.946 610.528 469.81 611.061 469.726V469.726Z" fill="#2F2E41"/>
<path d="M622.464 441.818C622.341 441.986 622.199 442.138 622.038 442.27L620.773 443.47L616.004 447.778L600.166 461.856C593.984 467.391 588.634 472.604 584.938 476.562C583.09 478.527 581.63 480.16 580.632 481.304L579.477 482.632C579.351 482.794 579.205 482.94 579.043 483.066C579.14 482.884 579.258 482.714 579.394 482.558C579.724 482.096 580.078 481.653 580.456 481.23C581.381 480.04 582.813 478.37 584.642 476.349C589.426 471.134 594.482 466.173 599.788 461.487C605.988 456.007 611.634 451.09 615.773 447.538L620.662 443.359L622.002 442.243C622.132 442.078 622.288 441.935 622.464 441.818V441.818Z" fill="#2F2E41"/>
<path d="M593.486 467.447C593.329 467.364 594.622 464.384 595.916 460.62C597.21 456.856 597.819 453.682 597.995 453.71C597.846 456.142 597.329 458.537 596.461 460.814C595.9 462.437 595.257 464.027 594.53 465.583C594.281 466.255 593.929 466.884 593.486 467.447V467.447Z" fill="#2F2E41"/>
<path d="M576.418 491.452C576.084 491.109 575.775 490.742 575.494 490.354L573.055 487.226C571.003 484.56 568.167 480.916 564.997 476.931C561.828 472.945 558.899 469.347 556.773 466.783L554.288 463.711C553.958 463.344 553.667 462.946 553.419 462.521C553.799 462.835 554.148 463.184 554.463 463.563L557.124 466.524C559.324 469.052 562.29 472.604 565.441 476.608C568.592 480.612 571.41 484.311 573.434 487.005C574.422 488.343 575.208 489.468 575.725 490.252C576.002 490.624 576.235 491.026 576.418 491.452V491.452Z" fill="#2F2E41"/>
<path d="M568.786 481.691C567.253 479.994 566.162 477.948 565.607 475.731C565.007 473.789 564.757 471.755 564.868 469.725H565.127C565.016 470.177 564.942 470.408 564.886 470.408C564.831 470.408 564.886 470.15 564.886 469.679H565.136C565.266 471.662 565.606 473.626 566.152 475.537C566.877 477.651 567.757 479.707 568.786 481.691V481.691Z" fill="#2F2E41"/>
<path d="M558.954 469.347C558.277 468.809 557.531 468.362 556.736 468.019C554.734 467.42 552.627 467.253 550.555 467.53C548.455 467.698 546.372 468.035 544.326 468.535C543.489 468.802 542.634 469.009 541.767 469.154C542.526 468.686 543.356 468.343 544.225 468.139C546.268 467.511 548.376 467.115 550.508 466.958C552.661 466.664 554.854 466.901 556.893 467.65C557.761 467.952 558.492 468.554 558.954 469.347V469.347Z" fill="#2F2E41"/>
<path d="M556.635 466.358C556.635 466.451 555.304 465.842 553.225 465.122C547.699 463.229 541.781 462.772 536.029 463.794C533.829 464.172 532.499 464.587 532.471 464.495C532.757 464.319 533.069 464.188 533.395 464.107C534.238 463.821 535.095 463.581 535.964 463.388C538.854 462.757 541.821 462.552 544.77 462.779C547.719 463.003 550.62 463.653 553.382 464.707C554.215 465.031 555.03 465.4 555.822 465.814C556.117 465.957 556.391 466.14 556.635 466.358V466.358Z" fill="#2F2E41"/>
<path d="M576.326 453.71C575.31 450.892 574.479 448.01 573.84 445.084C573.002 442.209 572.357 439.281 571.909 436.32C572.925 439.138 573.755 442.019 574.395 444.946C575.218 447.825 575.863 450.752 576.326 453.71V453.71Z" fill="#2F2E41"/>
<path d="M576.492 453.71C575.684 451.929 574.758 450.203 573.72 448.544C572.553 446.982 571.186 445.581 569.654 444.374C570.237 444.509 570.778 444.781 571.234 445.167C572.38 446.014 573.379 447.043 574.191 448.212C575.422 449.815 576.215 451.71 576.492 453.71V453.71Z" fill="#2F2E41"/>
<path d="M576.418 567.368C576.418 567.368 576.234 566.446 575.799 564.711C575.134 562.337 574.239 560.032 573.129 557.829C569.31 550.656 564.576 544.008 559.046 538.05C555.905 534.452 552.855 531.075 550.268 527.828C547.943 524.981 545.842 521.958 543.984 518.787C542.743 516.662 541.683 514.437 540.815 512.135C540.519 511.314 540.307 510.678 540.187 510.226C540.111 510.004 540.059 509.775 540.03 509.543C540.03 509.543 540.371 510.466 541.028 512.062C541.96 514.358 543.069 516.579 544.345 518.704C546.231 521.829 548.35 524.808 550.684 527.616C553.28 530.826 556.33 534.193 559.49 537.764C565.046 543.775 569.761 550.509 573.508 557.783C574.595 560.016 575.434 562.361 576.012 564.776C576.163 565.43 576.277 566.092 576.354 566.76C576.398 566.959 576.419 567.164 576.418 567.368V567.368Z" fill="#2F2E41"/>
<path d="M607.725 531.998C607.203 532.345 606.657 532.653 606.089 532.92C604.603 533.758 603.18 534.701 601.83 535.743C599.834 537.293 597.962 538.996 596.23 540.836C594.262 542.911 592.238 545.319 590.168 547.893C586.038 553.069 582.175 557.663 579.856 561.316C578.682 563.161 577.832 564.656 577.278 565.735C577.001 566.298 576.696 566.852 576.354 567.387C576.368 567.222 576.415 567.062 576.492 566.916C576.64 566.621 576.788 566.169 577.056 565.588C577.777 564.027 578.592 562.512 579.496 561.049C582.65 556.362 586.065 551.856 589.725 547.552C591.804 544.969 593.855 542.561 595.851 540.485C597.616 538.639 599.539 536.951 601.599 535.439C602.98 534.423 604.449 533.53 605.988 532.773C606.423 532.555 606.87 532.364 607.328 532.201C607.453 532.119 607.586 532.051 607.725 531.998V531.998Z" fill="#2F2E41"/>
<path d="M608.4 543.484C607.251 543.731 606.087 543.9 604.916 543.991C602.125 544.282 599.366 544.825 596.674 545.615C594.011 546.479 591.512 547.782 589.281 549.471C587.581 550.799 586.777 551.879 586.694 551.814C586.823 551.519 587.001 551.248 587.221 551.012C587.771 550.335 588.391 549.716 589.069 549.166C591.267 547.335 593.799 545.944 596.526 545.07C599.253 544.257 602.065 543.761 604.907 543.594C606.065 543.448 607.234 543.411 608.4 543.484V543.484Z" fill="#2F2E41"/>
<path d="M587.692 550.615C587.516 550.513 589.022 548.124 590.353 544.913C591.684 541.703 591.684 538.834 591.961 538.862C592.04 539.476 592.018 540.099 591.896 540.707C591.729 542.204 591.391 543.677 590.889 545.098C590.363 546.498 589.688 547.837 588.875 549.093C588.57 549.664 588.17 550.178 587.692 550.615V550.615Z" fill="#2F2E41"/>
<path d="M617.89 501.203C617.718 501.325 617.532 501.424 617.335 501.498L615.709 502.246C614.988 502.55 614.119 502.928 613.14 503.454C612.16 503.98 611.024 504.478 609.823 505.198L607.928 506.259C607.272 506.646 606.598 507.098 605.932 507.587C604.602 508.436 603.16 509.432 601.645 510.539C595.242 515.3 589.656 521.068 585.104 527.616C584.097 529.147 583.099 530.586 582.332 532.007C581.926 532.708 581.491 533.336 581.15 534.046C580.808 534.756 580.457 535.374 580.133 535.974C579.459 537.183 578.978 538.336 578.498 539.332C578.078 540.2 577.705 541.09 577.379 541.998L576.686 543.65C576.61 543.846 576.521 544.037 576.418 544.222C576.442 544.009 576.495 543.801 576.576 543.603L577.167 541.915C577.416 541.168 577.749 540.282 578.202 539.258C578.655 538.234 579.126 537.063 579.763 535.826C580.087 535.199 580.42 534.498 580.752 533.871C581.085 533.243 581.519 532.542 581.926 531.795C582.711 530.356 583.691 528.907 584.698 527.348C589.233 520.722 594.856 514.908 601.331 510.152C602.846 509.091 604.26 508.067 605.683 507.227C606.376 506.803 607.023 506.36 607.716 505.991L609.647 504.939C610.858 504.238 612.013 503.74 613.011 503.27C613.88 502.844 614.771 502.465 615.681 502.135L617.354 501.498C617.515 501.371 617.696 501.271 617.89 501.203Z" fill="#2F2E41"/>
<path d="M593.061 517.8C593.29 517.008 593.754 516.304 594.391 515.779C595.931 514.443 597.895 513.694 599.935 513.667C601.916 513.663 603.879 514.049 605.711 514.801C606.49 515.049 607.231 515.406 607.91 515.862C607.115 515.704 606.336 515.475 605.581 515.18C603.764 514.574 601.861 514.262 599.945 514.257C598.044 514.304 596.207 514.95 594.696 516.102C594.12 516.638 593.574 517.204 593.061 517.8V517.8Z" fill="#2F2E41"/>
<path d="M589.355 521.637C590.09 520.016 590.615 518.308 590.917 516.554C591.034 514.772 590.919 512.983 590.575 511.231C590.9 511.666 591.118 512.172 591.212 512.707C591.553 513.972 591.647 515.291 591.49 516.591C591.329 517.88 590.938 519.13 590.334 520.281C589.835 521.241 589.41 521.674 589.355 521.637Z" fill="#2F2E41"/>
<path d="M548.928 573.069C549.778 588.227 554.361 603.661 561.393 619.197H592.035C598.697 603.772 603.003 588.384 603.761 573.069H548.928Z" fill="#2F2E41"/>
<path d="M598.78 597.591C598.78 597.748 588.708 597.886 576.28 597.886C563.851 597.886 553.779 597.748 553.779 597.591C553.779 597.434 563.851 597.314 576.28 597.314C588.708 597.314 598.78 597.434 598.78 597.591Z" fill="#FAFAFA"/>
<path d="M598.087 603.089C598.087 603.246 588.634 603.375 576.982 603.375C565.33 603.375 555.896 603.246 555.896 603.089C555.896 602.932 565.339 602.794 576.982 602.794C588.625 602.794 598.087 602.923 598.087 603.089Z" fill="#FAFAFA"/>
<path d="M561.883 583.052C562.281 587.733 562.281 592.439 561.883 597.121C561.514 592.438 561.514 587.734 561.883 583.052V583.052Z" fill="#FAFAFA"/>
<path d="M578.285 583.052C578.664 587.922 578.664 592.814 578.285 597.683C577.897 592.814 577.897 587.921 578.285 583.052V583.052Z" fill="#FAFAFA"/>
<path d="M593.744 582.895C594.132 587.844 594.132 592.816 593.744 597.766C593.365 592.816 593.365 587.844 593.744 582.895V582.895Z" fill="#FAFAFA"/>
<path d="M602.745 583.052C602.745 583.208 590.926 583.347 576.354 583.347C561.782 583.347 549.963 583.208 549.963 583.052C549.963 582.895 561.782 582.775 576.354 582.775C590.926 582.775 602.745 582.858 602.745 583.052Z" fill="#FAFAFA"/>
<path d="M723.212 618.081H89.9463V619.437H723.212V618.081Z" fill="#2F2E41"/>
</svg>
